<?xml version="1.0" encoding="utf-8"?>
<!-- Generator: Adobe Illustrator 26.0.2, SVG Export Plug-In . SVG Version: 6.00 Build 0)  -->
<svg version="1.1" id="Layer_1" xmlns="http://www.w3.org/2000/svg" xmlns:xlink="http://www.w3.org/1999/xlink" x="0px" y="0px"
	 viewBox="0 0 1920 1080" style="enable-background:new 0 0 1920 1080;" xml:space="preserve">
<style type="text/css">
	.st0{fill:url(#SVGID_1_);}
	.st1{filter:url(#Adobe_OpacityMaskFilter);}
	.st2{fill:url(#SVGID_00000170957648391166223150000005923987723852544167_);}
	.st3{mask:url(#SVGID_00000085250831389879597950000016116854015436984487_);}
	.st4{fill:none;stroke:#FFFFFF;stroke-width:0.25;stroke-miterlimit:10;}
</style>
<linearGradient id="SVGID_1_" gradientUnits="userSpaceOnUse" x1="0" y1="540" x2="1920" y2="540" gradientTransform="matrix(1 0 0 -1 0 1080)">
	<stop  offset="0" style="stop-color:#181622"/>
	<stop  offset="1" style="stop-color:#FF2600"/>
</linearGradient>
<rect class="st0" width="1920" height="1080"/>
<defs>
	<filter id="Adobe_OpacityMaskFilter" filterUnits="userSpaceOnUse" x="-191.1" y="-106.1" width="2303.1" height="1294.2">
		<feColorMatrix  type="matrix" values="1 0 0 0 0  0 1 0 0 0  0 0 1 0 0  0 0 0 1 0"/>
	</filter>
</defs>
<mask maskUnits="userSpaceOnUse" x="-191.1" y="-106.1" width="2303.1" height="1294.2" id="SVGID_00000117667858251058040730000015743434677626479511_">
	<g class="st1">
		
			<linearGradient id="SVGID_00000096753057613028199370000006863649956922903443_" gradientUnits="userSpaceOnUse" x1="0" y1="540" x2="1920" y2="540" gradientTransform="matrix(1 0 0 -1 0 1080)">
			<stop  offset="0" style="stop-color:#000000"/>
			<stop  offset="1" style="stop-color:#FFFFFF"/>
		</linearGradient>
		<rect style="fill:url(#SVGID_00000096753057613028199370000006863649956922903443_);" width="1920" height="1080"/>
	</g>
</mask>
<g style="mask:url(#SVGID_00000117667858251058040730000015743434677626479511_);">
	<line class="st4" x1="815" y1="53" x2="1363" y2="671"/>
	<line class="st4" x1="1994" y1="797" x2="1709" y2="714"/>
	<line class="st4" x1="282" y1="334" x2="1934" y2="718"/>
	<line class="st4" x1="-121" y1="390" x2="1866" y2="31"/>
	<line class="st4" x1="1807" y1="-24" x2="1065" y2="330"/>
	<line class="st4" x1="1663" y1="826" x2="1121" y2="1092"/>
	<line class="st4" x1="470" y1="1178" x2="442" y2="1109"/>
	<line class="st4" x1="1590" y1="-98" x2="92" y2="593"/>
	<line class="st4" x1="1830" y1="930" x2="1685" y2="645"/>
	<line class="st4" x1="776" y1="552" x2="760" y2="85"/>
	<line class="st4" x1="604" y1="451" x2="359" y2="873"/>
	<line class="st4" x1="1802" y1="974" x2="623" y2="1091"/>
	<line class="st4" x1="1150" y1="444" x2="2094" y2="503"/>
	<line class="st4" x1="48" y1="-60" x2="1374" y2="106"/>
	<line class="st4" x1="982" y1="699" x2="1511" y2="656"/>
	<line class="st4" x1="2066" y1="677" x2="362" y2="-13"/>
	<line class="st4" x1="34" y1="1029" x2="743" y2="312"/>
	<line class="st4" x1="584" y1="18" x2="-153" y2="469"/>
	<line class="st4" x1="1488" y1="921" x2="2105" y2="629"/>
	<line class="st4" x1="1481" y1="-1" x2="903" y2="70"/>
	<line class="st4" x1="-186" y1="828" x2="1909" y2="287"/>
	<line class="st4" x1="878" y1="80" x2="1361" y2="346"/>
	<line class="st4" x1="633" y1="1146" x2="278" y2="239"/>
	<line class="st4" x1="704" y1="300" x2="1302" y2="304"/>
	<line class="st4" x1="1153" y1="890" x2="268" y2="771"/>
	<line class="st4" x1="1775" y1="107" x2="445" y2="680"/>
	<line class="st4" x1="159" y1="880" x2="361" y2="549"/>
	<line class="st4" x1="229" y1="798" x2="1774" y2="154"/>
	<line class="st4" x1="-8" y1="34" x2="125" y2="-66"/>
	<line class="st4" x1="1551" y1="663" x2="730" y2="576"/>
	<line class="st4" x1="1352" y1="656" x2="384" y2="599"/>
	<line class="st4" x1="1959" y1="1089" x2="635" y2="351"/>
	<line class="st4" x1="423" y1="85" x2="1378" y2="365"/>
	<line class="st4" x1="1711" y1="-105" x2="1191" y2="146"/>
	<line class="st4" x1="475" y1="114" x2="-10" y2="933"/>
	<line class="st4" x1="1343" y1="835" x2="-36" y2="916"/>
	<line class="st4" x1="1053" y1="573" x2="677" y2="1159"/>
	<line class="st4" x1="1581" y1="471" x2="1263" y2="497"/>
	<line class="st4" x1="1001" y1="515" x2="477" y2="839"/>
	<line class="st4" x1="7" y1="1077" x2="-94" y2="969"/>
	<line class="st4" x1="318" y1="959" x2="1643" y2="929"/>
	<line class="st4" x1="-23" y1="444" x2="407" y2="1139"/>
	<line class="st4" x1="105" y1="153" x2="148" y2="373"/>
	<line class="st4" x1="580" y1="596" x2="1944" y2="1097"/>
	<line class="st4" x1="555" y1="366" x2="1148" y2="456"/>
	<line class="st4" x1="453" y1="-58" x2="-191" y2="1022"/>
	<line class="st4" x1="1402" y1="10" x2="402" y2="-15"/>
	<line class="st4" x1="327" y1="-77" x2="1678" y2="948"/>
	<line class="st4" x1="725" y1="266" x2="844" y2="167"/>
	<line class="st4" x1="234" y1="773" x2="931" y2="36"/>
	<line class="st4" x1="1983" y1="-42" x2="1749" y2="86"/>
	<line class="st4" x1="1856" y1="264" x2="1792" y2="534"/>
	<line class="st4" x1="636" y1="-85" x2="1042" y2="55"/>
	<line class="st4" x1="1360" y1="-96" x2="1318" y2="177"/>
	<line class="st4" x1="728" y1="931" x2="1241" y2="48"/>
	<line class="st4" x1="50" y1="185" x2="1643" y2="496"/>
	<line class="st4" x1="969" y1="577" x2="480" y2="259"/>
	<line class="st4" x1="1239" y1="801" x2="-58" y2="251"/>
	<line class="st4" x1="-68" y1="-73" x2="1612" y2="95"/>
	<line class="st4" x1="420" y1="374" x2="1504" y2="-90"/>
	<line class="st4" x1="408" y1="391" x2="1627" y2="444"/>
	<line class="st4" x1="1584" y1="648" x2="1191" y2="698"/>
	<line class="st4" x1="445" y1="784" x2="1417" y2="575"/>
	<line class="st4" x1="507" y1="1006" x2="636" y2="162"/>
	<line class="st4" x1="1889" y1="495" x2="2015" y2="-76"/>
	<line class="st4" x1="286" y1="957" x2="1448" y2="164"/>
	<line class="st4" x1="1610" y1="623" x2="1360" y2="1137"/>
	<line class="st4" x1="26" y1="501" x2="264" y2="694"/>
	<line class="st4" x1="1372" y1="986" x2="-56" y2="715"/>
	<line class="st4" x1="1505" y1="432" x2="516" y2="942"/>
	<line class="st4" x1="-122" y1="73" x2="650" y2="1131"/>
	<line class="st4" x1="2096" y1="96" x2="1573" y2="1127"/>
	<line class="st4" x1="7" y1="780" x2="2038" y2="753"/>
	<line class="st4" x1="-90" y1="792" x2="1669" y2="91"/>
	<line class="st4" x1="2017" y1="358" x2="755" y2="6"/>
	<line class="st4" x1="1469" y1="820" x2="363" y2="346"/>
	<line class="st4" x1="198" y1="-20" x2="2046" y2="1039"/>
	<line class="st4" x1="1134" y1="526" x2="1053" y2="606"/>
	<line class="st4" x1="1024" y1="1143" x2="14" y2="351"/>
	<line class="st4" x1="995" y1="315" x2="-86" y2="1123"/>
	<line class="st4" x1="1443" y1="297" x2="-185" y2="678"/>
	<line class="st4" x1="1741" y1="99" x2="1624" y2="1017"/>
	<line class="st4" x1="1369" y1="809" x2="569" y2="389"/>
	<line class="st4" x1="76" y1="392" x2="722" y2="94"/>
	<line class="st4" x1="1026" y1="1175" x2="1750" y2="703"/>
	<line class="st4" x1="1364" y1="1148" x2="1590" y2="668"/>
	<line class="st4" x1="1830" y1="645" x2="1806" y2="691"/>
	<line class="st4" x1="495" y1="334" x2="115" y2="951"/>
	<line class="st4" x1="1982" y1="1107" x2="163" y2="-91"/>
	<line class="st4" x1="1638" y1="877" x2="741" y2="99"/>
	<line class="st4" x1="793" y1="115" x2="639" y2="468"/>
	<line class="st4" x1="1452" y1="934" x2="1173" y2="542"/>
	<line class="st4" x1="1735" y1="560" x2="1306" y2="984"/>
	<line class="st4" x1="1018" y1="564" x2="159" y2="1147"/>
	<line class="st4" x1="329" y1="715" x2="241" y2="543"/>
	<line class="st4" x1="1028" y1="-48" x2="1808" y2="509"/>
	<line class="st4" x1="759" y1="811" x2="2102" y2="678"/>
	<line class="st4" x1="534" y1="562" x2="1530" y2="1115"/>
	<line class="st4" x1="-37" y1="970" x2="1040" y2="454"/>
	<line class="st4" x1="1697" y1="617" x2="2097" y2="1056"/>
	<line class="st4" x1="1024" y1="340" x2="1899" y2="591"/>
	<line class="st4" x1="465" y1="594" x2="1725" y2="921"/>
	<line class="st4" x1="571" y1="169" x2="1895" y2="529"/>
	<line class="st4" x1="1990" y1="339" x2="2078" y2="751"/>
	<line class="st4" x1="101" y1="1134" x2="54" y2="1094"/>
	<line class="st4" x1="2044" y1="890" x2="982" y2="175"/>
	<line class="st4" x1="1369" y1="955" x2="803" y2="188"/>
	<line class="st4" x1="1073" y1="27" x2="1200" y2="321"/>
	<line class="st4" x1="-9" y1="387" x2="1422" y2="802"/>
	<line class="st4" x1="1676" y1="1128" x2="1258" y2="199"/>
	<line class="st4" x1="1750" y1="273" x2="752" y2="-5"/>
	<line class="st4" x1="444" y1="211" x2="870" y2="-7"/>
	<line class="st4" x1="1398" y1="32" x2="819" y2="700"/>
	<line class="st4" x1="523" y1="131" x2="-174" y2="1018"/>
	<line class="st4" x1="1353" y1="620" x2="1954" y2="797"/>
	<line class="st4" x1="532" y1="859" x2="891" y2="320"/>
	<line class="st4" x1="384" y1="-91" x2="-139" y2="384"/>
	<line class="st4" x1="1316" y1="480" x2="1162" y2="50"/>
	<line class="st4" x1="748" y1="414" x2="1947" y2="958"/>
	<line class="st4" x1="733" y1="1065" x2="1851" y2="887"/>
	<line class="st4" x1="2032" y1="311" x2="1449" y2="951"/>
	<line class="st4" x1="1190" y1="71" x2="1994" y2="961"/>
	<line class="st4" x1="1690" y1="-24" x2="148" y2="833"/>
	<line class="st4" x1="340" y1="771" x2="596" y2="1176"/>
	<line class="st4" x1="-126" y1="314" x2="1440" y2="1160"/>
	<line class="st4" x1="629" y1="433" x2="790" y2="1162"/>
	<line class="st4" x1="1852" y1="273" x2="1516" y2="782"/>
	<line class="st4" x1="1425" y1="619" x2="2112" y2="731"/>
	<line class="st4" x1="-142" y1="872" x2="1831" y2="1033"/>
	<line class="st4" x1="1424" y1="226" x2="426" y2="44"/>
	<line class="st4" x1="1738" y1="126" x2="1158" y2="412"/>
	<line class="st4" x1="305" y1="208" x2="117" y2="559"/>
	<line class="st4" x1="115" y1="1158" x2="1696" y2="818"/>
	<line class="st4" x1="1698" y1="638" x2="1387" y2="896"/>
	<line class="st4" x1="1108" y1="1184" x2="1684" y2="986"/>
	<line class="st4" x1="120" y1="1083" x2="792" y2="292"/>
	<line class="st4" x1="1666" y1="350" x2="201" y2="597"/>
	<line class="st4" x1="304" y1="1183" x2="1323" y2="794"/>
	<line class="st4" x1="711" y1="906" x2="434" y2="97"/>
	<line class="st4" x1="1699" y1="674" x2="625" y2="275"/>
	<line class="st4" x1="1941" y1="432" x2="343" y2="987"/>
	<line class="st4" x1="-93" y1="789" x2="-87" y2="544"/>
	<line class="st4" x1="1147" y1="811" x2="230" y2="1093"/>
	<line class="st4" x1="-72" y1="83" x2="1807" y2="294"/>
	<line class="st4" x1="859" y1="270" x2="25" y2="-106"/>
	<line class="st4" x1="1896" y1="668" x2="910" y2="190"/>
	<line class="st4" x1="105" y1="1099" x2="947" y2="115"/>
	<line class="st4" x1="73" y1="316" x2="901" y2="-57"/>
	<line class="st4" x1="754" y1="219" x2="26" y2="706"/>
	<line class="st4" x1="816" y1="375" x2="1824" y2="607"/>
	<line class="st4" x1="689" y1="-42" x2="1028" y2="496"/>
	<line class="st4" x1="570" y1="9" x2="357" y2="301"/>
	<line class="st4" x1="198" y1="526" x2="1395" y2="19"/>
	<line class="st4" x1="1940" y1="-55" x2="767" y2="728"/>
	<line class="st4" x1="1405" y1="359" x2="662" y2="1089"/>
	<line class="st4" x1="1501" y1="109" x2="1384" y2="437"/>
	<line class="st4" x1="1667" y1="1175" x2="368" y2="1001"/>
	<line class="st4" x1="1703" y1="1119" x2="1325" y2="-60"/>
	<line class="st4" x1="1970" y1="176" x2="1632" y2="598"/>
	<line class="st4" x1="1463" y1="328" x2="15" y2="-68"/>
	<line class="st4" x1="1697" y1="1097" x2="1087" y2="907"/>
	<line class="st4" x1="2109" y1="1020" x2="427" y2="86"/>
	<line class="st4" x1="983" y1="529" x2="1473" y2="1010"/>
	<line class="st4" x1="1975" y1="1010" x2="-52" y2="753"/>
	<line class="st4" x1="1604" y1="1188" x2="2045" y2="1012"/>
	<line class="st4" x1="810" y1="739" x2="1568" y2="441"/>
	<line class="st4" x1="3" y1="346" x2="1395" y2="543"/>
	<line class="st4" x1="2064" y1="487" x2="833" y2="808"/>
	<line class="st4" x1="1578" y1="910" x2="671" y2="87"/>
	<line class="st4" x1="-170" y1="558" x2="1870" y2="4"/>
	<line class="st4" x1="912" y1="730" x2="14" y2="316"/>
	<line class="st4" x1="988" y1="1179" x2="10" y2="388"/>
	<line class="st4" x1="228" y1="1005" x2="2040" y2="304"/>
	<line class="st4" x1="326" y1="1066" x2="697" y2="1166"/>
	<line class="st4" x1="477" y1="555" x2="2014" y2="983"/>
	<line class="st4" x1="459" y1="406" x2="-161" y2="364"/>
	<line class="st4" x1="957" y1="1176" x2="-53" y2="1037"/>
	<line class="st4" x1="1409" y1="1032" x2="1805" y2="555"/>
	<line class="st4" x1="2107" y1="441" x2="134" y2="394"/>
	<line class="st4" x1="-97" y1="641" x2="1707" y2="78"/>
	<line class="st4" x1="780" y1="145" x2="-83" y2="311"/>
	<line class="st4" x1="560" y1="677" x2="-74" y2="406"/>
	<line class="st4" x1="1953" y1="309" x2="1755" y2="1148"/>
	<line class="st4" x1="1655" y1="412" x2="1106" y2="704"/>
	<line class="st4" x1="2101" y1="466" x2="1895" y2="904"/>
	<line class="st4" x1="912" y1="551" x2="1108" y2="850"/>
	<line class="st4" x1="726" y1="399" x2="1897" y2="113"/>
	<line class="st4" x1="1767" y1="795" x2="1685" y2="131"/>
	<line class="st4" x1="1415" y1="178" x2="600" y2="910"/>
	<line class="st4" x1="1050" y1="-36" x2="927" y2="1136"/>
	<line class="st4" x1="811" y1="53" x2="430" y2="415"/>
	<line class="st4" x1="1099" y1="882" x2="1382" y2="36"/>
	<line class="st4" x1="1996" y1="62" x2="360" y2="30"/>
	<line class="st4" x1="298" y1="385" x2="829" y2="218"/>
	<line class="st4" x1="1020" y1="108" x2="176" y2="-90"/>
	<line class="st4" x1="640" y1="950" x2="1295" y2="233"/>
	<line class="st4" x1="791" y1="268" x2="1242" y2="982"/>
	<line class="st4" x1="-165" y1="504" x2="340" y2="711"/>
	<line class="st4" x1="-11" y1="554" x2="900" y2="241"/>
	<line class="st4" x1="1480" y1="118" x2="621" y2="841"/>
</g>
</svg>
