<?xml version="1.0" encoding="utf-8"?>
<!-- Generator: Adobe Illustrator 26.0.2, SVG Export Plug-In . SVG Version: 6.00 Build 0)  -->
<svg version="1.1" id="Layer_1" xmlns="http://www.w3.org/2000/svg" xmlns:xlink="http://www.w3.org/1999/xlink" x="0px" y="0px"
	 viewBox="0 0 1006.3 676.5" style="enable-background:new 0 0 1006.3 676.5;" xml:space="preserve">
<style type="text/css">
	.st0{fill:#181622;}
	.st1{fill:#FF2600;}
</style>
<g>
	<path class="st0" d="M435.8,676.5c-4.7,0-9.4-0.7-14-2.2c-4.6-1.5-8.7-3.7-12.4-6.8c-0.6-0.6-1.1-1.2-1.3-1.9c-0.2-0.7-0.2-1.4,0-2
		c0.2-0.7,0.5-1.2,1-1.7c0.5-0.4,1.1-0.7,1.9-0.7c0.8,0,1.5,0.3,2.3,0.9c3.4,2.6,6.9,4.6,10.7,5.8c3.8,1.2,7.7,1.9,11.8,1.9
		c4.2,0,7.7-0.8,10.7-2.5c3-1.6,5.3-3.9,7-6.8c1.6-2.9,2.5-6.3,2.5-10.1c0-6.1-1.7-11-5.2-14.9c-3.4-3.8-8.2-5.8-14.2-5.8
		c-3.9,0-7.4,0.7-10.5,2.2c-3.1,1.4-5.9,3.8-8.3,7c-0.4,0.6-0.9,1.2-1.5,1.6c-0.6,0.4-1.3,0.6-2.1,0.6c-1.1,0-2-0.3-2.6-1
		c-0.6-0.6-0.9-1.5-0.9-2.5v-43c0-1.2,0.3-2.1,1-2.7c0.6-0.6,1.5-0.9,2.6-0.9h41.3c1.2,0,2.1,0.3,2.7,0.8c0.6,0.6,0.9,1.4,0.9,2.4
		c0,1-0.3,1.8-0.9,2.4c-0.6,0.6-1.5,0.8-2.7,0.8H418v36.7h-2.2c2.1-3.5,5-6.3,8.9-8.2c3.8-2,8.1-2.9,12.8-2.9
		c5.3,0,9.8,1.1,13.7,3.4c3.8,2.2,6.8,5.4,8.9,9.4c2.1,4,3.2,8.7,3.2,14c0,5.3-1.1,9.9-3.4,13.9c-2.2,4-5.4,7.1-9.5,9.4
		C446.4,675.3,441.5,676.5,435.8,676.5z M482.7,675.9c-1.6,0-2.9-0.5-4-1.6c-1-1-1.6-2.4-1.6-4c0-1.6,0.5-2.9,1.6-4
		c1-1,2.4-1.6,4-1.6c1.7,0,3,0.5,4,1.6c1,1,1.5,2.4,1.5,4c0,1.6-0.5,2.9-1.5,4C485.7,675.3,484.4,675.9,482.7,675.9z M531.8,676.5
		c-9.5,0-16.7-3.7-21.7-11.1c-4.9-7.4-7.4-18.1-7.4-32.1c0-9.5,1.1-17.5,3.3-23.9c2.2-6.4,5.5-11.2,9.8-14.5c4.3-3.3,9.6-4.9,16-4.9
		c9.6,0,16.8,3.6,21.7,10.9c4.9,7.3,7.3,18,7.3,32.3c0,9.4-1.1,17.3-3.3,23.8c-2.2,6.5-5.5,11.4-9.8,14.6
		C543.4,674.8,538.1,676.5,531.8,676.5z M531.8,669.9c7.3,0,12.7-3,16.2-9c3.5-6,5.3-15.2,5.3-27.7c0-12.6-1.7-21.9-5.2-27.8
		c-3.5-5.9-8.9-8.8-16.3-8.8c-7.3,0-12.7,3-16.2,8.9c-3.5,5.9-5.3,15.2-5.3,27.7c0,12.5,1.8,21.7,5.3,27.7
		C519.1,666.9,524.5,669.9,531.8,669.9z M428.2,354.3l-52-64l21.5-8.5c0.9-0.4,1.7-1.1,2-2.1s0.2-2-0.3-2.9l-63-110.4L310.9,49.7
		c-0.3-1.3-1.2-2.3-2.5-2.6c-1.3-0.3-2.6,0-3.5,1l-22.2,24L242.5,1.8c-0.6-1.1-1.8-1.8-3.1-1.8c-1.3,0-2.5,0.8-3,1.9L222,30.6
		l-8.3-16.7c-0.6-1.2-1.8-1.9-3.1-1.9s-2.5,0.7-3.1,1.9l-21.1,42.2l-25-30.9c-0.8-1-2.2-1.5-3.4-1.2c-1.3,0.3-2.3,1.2-2.7,2.5
		L96.9,234.9L56,316.7l-55,59.4c-0.9,0.9-1.2,2.3-0.7,3.5s1.5,2.1,2.7,2.3l18.9,3.1L7.4,413.9c-0.5,1.1-0.5,2.4,0.2,3.4
		c0.6,1,1.8,1.7,3,1.7h16.3l-1.5,2.9c-0.7,1.3-0.4,2.9,0.5,3.9c0.7,0.7,1.6,1.1,2.6,1.1c0.4,0,0.9-0.1,1.3-0.2l15.2-6l-5.8,20.8
		c-0.3,1.2,0,2.5,0.8,3.4c0.7,0.7,1.6,1.1,2.5,1.1c0.3,0,0.5,0,0.8-0.1L163.1,419h65.6l164.2,27c0.2,0,0.4,0,0.6,0
		c1,0,1.9-0.4,2.5-1.1c0.8-0.8,1.1-2,0.9-3.2l-5-22.8h18.6c1.2,0,2.3-0.6,3-1.7c0.6-1,0.7-2.3,0.2-3.4l-23-46l35.6-8
		c1.2-0.3,2.1-1.1,2.5-2.3C429.2,356.5,429,355.2,428.2,354.3z M391.5,276.7l-19.8,7.8L359,269l-17.5-79.8L391.5,276.7z
		 M372.9,364.7l-182.3,40.9l-75.7-12.4l234.4-92.4l17.1,34.1L372.9,364.7z M379.1,360.5l1.3,2.5l-0.7,0.2L379.1,360.5z M292.2,186.6
		l-49.5-61l12.3-13.3L292.2,186.6z M260.1,106.8l21.3-23l48.5,85l19.3,88.1l-36.7-45.2L260.1,106.8z M62.3,384.6l13-46.5l35.1-69.8
		l127.5-137.5l68.8,84.8l39.5,79L101.4,391L62.3,384.6z M88.7,396l-33.2,13.1l5-17.7L88.7,396z M238.2,120.1l-33-40.6L222,46.2
		l29.7,59.4L238.2,120.1z M233.4,125.3L121.7,245.9l80.1-159.5L233.4,125.3z M104.6,264.3l-12.3,13.3l11.2-40.2L187.7,69l9.3,11.4
		L104.6,264.3z M93.3,286.8L85.1,303l3-10.6L93.3,286.8z M68.8,335.6l-23.2,46.3l-13.2-2.2l29.5-58.9l15.9-17.2L68.8,335.6z
		 M58.9,370.7l-3.6,12.7l-2.6-0.4L58.9,370.7z M53.5,390.2L47.4,412h-9.2l11.3-22.4L53.5,390.2z M102.2,398.2l70.2,11.5l-10,2.2
		H67.2L102.2,398.2z M209.1,408.7l165.3-37.1l8.9,40.4h-154L209.1,408.7z M355.8,298.3l2.3-0.9l2.1,9.7L355.8,298.3z M352.7,292
		L327,240.7l25.5,31.5l4,18.3L352.7,292z M362.4,284.3l2.4,3l-1.6,0.6L362.4,284.3z M305.5,57.8l19.3,88.2l-38.5-67.5L305.5,57.8z
		 M239.7,10.9l38,66.6l-21,22.6l-30.9-61.7L239.7,10.9z M210.5,23.3l7.5,15.1l-17.7,35.1l-9.3-11.4L210.5,23.3z M160,35L182.8,63
		l-69.4,138.9L160,35z M87,270.4l-5.2,18.5l-8.9,9.6L87,270.4z M10.5,376.1l34.3-37l-19.7,39.4L10.5,376.1z M16.2,412L29,386.2
		l13.2,2.2L30.4,412H16.2z M47.4,437.8l5.3-18.8h78.5L47.4,437.8z M389,438.2L271.9,419h112.9L389,438.2z M404.8,412h-14.4l-9.2-42
		l2.4-0.5L404.8,412z M387.4,361.5L373,332.6l-8.3-37.8l4.7-1.9l49.8,61.4L387.4,361.5z"/>
	<path class="st1" d="M455.7,482.8c-1.4-3.1-3.2-5.4-5.2-6.9c-2-1.5-4.4-2.2-7.1-2.2c-2.8,0-5.2,0.7-7.3,2.2
		c-2.1,1.5-3.8,3.8-5.3,6.9l-29.9,64.3c-1.1,2.6-1.5,4.9-1.1,6.9c0.4,2,1.4,3.7,3.1,4.9c1.7,1.2,3.8,1.8,6.2,1.8
		c3.1,0,5.4-0.7,7-2.2c1.5-1.5,3-3.9,4.3-7.1l3.8-8.9h38l3.8,8.9c1.4,3.2,2.9,5.6,4.7,7.1c1.8,1.5,4.2,2.3,7.2,2.3
		c2.5,0,4.5-0.6,6.1-1.7c1.6-1.2,2.6-2.8,2.9-4.9c0.4-2.1-0.1-4.4-1.3-7L455.7,482.8z M443.1,497.9h0.2l11.5,27.5h-23.3L443.1,497.9
		z M566.9,475.6c1,1,1.4,2.5,1.4,4.3v74.5c0,1.8-0.5,3.3-1.4,4.3c-0.9,1-2.1,1.6-3.7,1.6c-1.4,0-2.6-0.3-3.5-0.8
		c-0.9-0.6-1.9-1.5-2.9-2.9l-46.4-61.4v59.1c0,1.9-0.5,3.4-1.4,4.4c-1,1-2.4,1.6-4.2,1.6c-1.8,0-3.3-0.5-4.3-1.6
		c-1-1-1.6-2.5-1.6-4.4v-74c0-2,0.5-3.5,1.5-4.6c1-1.1,2.3-1.6,4-1.6c1.4,0,2.5,0.3,3.3,0.8c0.8,0.5,1.7,1.5,2.7,2.8l46.4,61.2
		v-58.9c0-1.8,0.5-3.3,1.5-4.3c1-1,2.4-1.6,4.3-1.6C564.5,474.1,566,474.6,566.9,475.6z M620.8,465.5c-0.2-0.9,0-1.8,0.6-2.8
		l10.1-14.8c0.7-1.1,1.6-1.8,2.7-2.1c1.1-0.3,2.1-0.2,3.1,0.1c1,0.4,1.8,0.9,2.5,1.7c0.6,0.8,1,1.6,1.1,2.6c0.1,1-0.3,2-1.2,2.9
		l-12.1,13.8c-0.8,0.9-1.7,1.3-2.6,1.4c-1,0-1.8-0.2-2.6-0.8C621.6,467.1,621.1,466.4,620.8,465.5z M629.6,479.3
		c-0.8-1.9-1.8-3.3-3.1-4.1c-1.2-0.8-2.6-1.2-4-1.2c-1.5,0-2.9,0.4-4.1,1.2c-1.2,0.8-2.3,2.2-3.1,4.1l-32.5,73
		c-0.6,1.5-0.9,2.9-0.7,4.1c0.2,1.2,0.7,2.2,1.7,2.9c1,0.7,2.2,1.1,3.8,1.1c1.6,0,2.9-0.4,3.8-1.3s1.8-2.2,2.6-4.1l6.8-16.1h42.8
		l6.9,16.1c0.8,1.8,1.7,3.2,2.8,4.1c1,0.9,2.4,1.3,4.2,1.3c1.6,0,2.8-0.3,3.7-1c0.9-0.7,1.4-1.6,1.6-2.9c0.2-1.2-0.1-2.6-0.8-4.1
		L629.6,479.3z M622.3,488.7h0.2l17,40.1h-34.2L622.3,488.7z M747.1,475.7c1,1.1,1.6,2.7,1.6,4.7V554c0,2-0.5,3.6-1.6,4.7
		c-1,1.1-2.6,1.7-4.6,1.7c-2,0-3.5-0.6-4.6-1.7s-1.6-2.7-1.6-4.7v-32.2h-47.4V554c0,2-0.5,3.6-1.6,4.7c-1,1.1-2.6,1.7-4.7,1.7
		c-2,0-3.5-0.6-4.6-1.7s-1.6-2.7-1.6-4.7v-73.6c0-2.1,0.5-3.7,1.6-4.7s2.6-1.6,4.6-1.6c2,0,3.5,0.5,4.6,1.6s1.6,2.7,1.6,4.7v31h47.4
		v-31c0-2.1,0.5-3.7,1.6-4.7s2.6-1.6,4.6-1.6C744.5,474.1,746,474.6,747.1,475.7z M835.6,475.6c1,1,1.6,2.6,1.6,4.7v45.1
		c0,7.7-1.3,14.1-3.9,19.4c-2.6,5.2-6.5,9.2-11.6,11.8c-5.1,2.6-11.5,4-19.1,4c-5.7,0-10.7-0.7-15-2.2s-7.9-3.7-10.9-6.7
		c-2.9-3-5.1-6.6-6.7-11c-1.5-4.4-2.3-9.5-2.3-15.2v-45.1c0-2.1,0.5-3.6,1.6-4.7c1.1-1,2.6-1.6,4.6-1.6c2,0,3.5,0.5,4.6,1.6
		c1.1,1,1.6,2.6,1.6,4.7v44.9c0,8.2,1.9,14.4,5.7,18.5c3.8,4.1,9.3,6.1,16.6,6.1c7.4,0,12.9-2,16.7-6.1c3.8-4.1,5.6-10.2,5.6-18.5
		v-44.9c0-2.1,0.5-3.6,1.6-4.7c1.1-1,2.6-1.6,4.5-1.6C833.1,474.1,834.6,474.6,835.6,475.6z M897.3,479.3c-0.8-1.9-1.8-3.3-3.1-4.1
		c-1.2-0.8-2.6-1.2-4-1.2c-1.5,0-2.9,0.4-4.1,1.2c-1.2,0.8-2.3,2.2-3.1,4.1l-32.5,73c-0.6,1.5-0.9,2.9-0.7,4.1
		c0.2,1.2,0.7,2.2,1.7,2.9c1,0.7,2.2,1.1,3.8,1.1c1.6,0,2.9-0.4,3.8-1.3s1.8-2.2,2.6-4.1l6.8-16.1h42.8l6.9,16.1
		c0.8,1.8,1.7,3.2,2.8,4.1c1,0.9,2.4,1.3,4.2,1.3c1.6,0,2.8-0.3,3.7-1c0.9-0.7,1.4-1.6,1.6-2.9c0.2-1.2-0.1-2.6-0.8-4.1L897.3,479.3
		z M890,488.7h0.2l17,40.1h-34.2L890,488.7z M1006,549.6c-0.4,1.2-1.1,2.1-2.3,2.9c-3.3,2.6-7.2,4.6-11.6,6c-4.5,1.4-9.2,2-14,2
		c-8.6,0-15.9-1.8-22-5.3c-6.1-3.5-10.7-8.5-14-15.1c-3.2-6.5-4.9-14.2-4.9-23.1c0-6.6,0.9-12.6,2.8-17.9c1.8-5.3,4.5-9.9,8-13.7
		c3.5-3.8,7.8-6.7,12.8-8.7c5.1-2,10.8-3,17.2-3c4.7,0,9.3,0.6,13.6,1.9c4.4,1.3,8.1,3.1,11.3,5.5c1.4,0.9,2.3,1.9,2.7,3.2
		c0.4,1.2,0.5,2.4,0.2,3.5c-0.3,1.1-0.8,2.1-1.6,2.8c-0.8,0.8-1.8,1.2-3.1,1.3c-1.2,0.1-2.6-0.4-4-1.3c-2.6-2-5.6-3.5-8.8-4.4
		c-3.2-1-6.6-1.4-10.1-1.4c-6.1,0-11.2,1.3-15.4,3.8c-4.2,2.5-7.3,6.2-9.5,11c-2.2,4.8-3.2,10.6-3.2,17.5c0,6.9,1.1,12.7,3.2,17.6
		c2.2,4.8,5.3,8.5,9.5,11c4.2,2.5,9.3,3.8,15.4,3.8c3.5,0,6.9-0.5,10.1-1.5c3.2-1,6.3-2.5,9.2-4.5c1.4-0.9,2.7-1.3,3.9-1.2
		c1.2,0.1,2.1,0.5,2.9,1.2c0.8,0.7,1.3,1.6,1.6,2.7C1006.4,547.3,1006.3,548.4,1006,549.6z"/>
</g>
</svg>
